<svg width="26" height="24" viewBox="0 0 26 24" fill="none" xmlns="http://www.w3.org/2000/svg">
<path d="M20.6165 21L13.9898 14.7C13.4639 15.1 12.8591 15.4167 12.1754 15.65C11.4917 15.8833 10.7642 16 9.9928 16C8.08193 16 6.46489 15.3707 5.14166 14.112C3.81843 12.8533 3.15646 11.316 3.15576 9.5C3.15506 7.684 3.81703 6.14667 5.14166 4.888C6.46629 3.62933 8.08334 3 9.9928 3C11.9023 3 13.5197 3.62933 14.845 4.888C16.1703 6.14667 16.8319 7.684 16.8298 9.5C16.8298 10.2333 16.7071 10.925 16.4617 11.575C16.2163 12.225 15.8832 12.8 15.4624 13.3L22.0891 19.6L20.6165 21ZM9.9928 14C11.3076 14 12.4254 13.5627 13.3461 12.688C14.2668 11.8133 14.7268 10.7507 14.7261 9.5C14.7254 8.24933 14.2654 7.187 13.3461 6.313C12.4268 5.439 11.309 5.00133 9.9928 5C8.67658 4.99867 7.55916 5.43633 6.64055 6.313C5.72193 7.18967 5.26157 8.252 5.25947 9.5C5.25736 10.748 5.71772 11.8107 6.64055 12.688C7.56337 13.5653 8.68079 14.0027 9.9928 14Z" fill="black" fill-opacity="0.5"/>
</svg>
