<svg xmlns="http://www.w3.org/2000/svg" width="63" height="60" viewBox="0 0 63 60" fill="none">
  <path d="M51.4483 51.9242L35.2256 36.5012C33.9381 37.4804 32.4574 38.2556 30.7836 38.8268C29.1099 39.3981 27.3288 39.6837 25.4404 39.6837C20.7625 39.6837 16.8038 38.143 13.5644 35.0617C10.325 31.9803 8.70442 28.2168 8.7027 23.7711C8.70098 19.3253 10.3215 15.5618 13.5644 12.4804C16.8072 9.39909 20.7659 7.85842 25.4404 7.85842C30.115 7.85842 34.0745 9.39909 37.3191 12.4804C40.5636 15.5618 42.1833 19.3253 42.1782 23.7711C42.1782 25.5663 41.8777 27.2596 41.2769 28.8509C40.6761 30.4421 39.8606 31.8498 38.8306 33.0738L55.0533 48.4968L51.4483 51.9242ZM25.4404 34.7875C28.6592 34.7875 31.3956 33.7169 33.6496 31.5756C35.9037 29.4343 37.0298 26.8328 37.0281 23.7711C37.0264 20.7093 35.9002 18.1086 33.6496 15.969C31.3991 13.8293 28.6627 12.7579 25.4404 12.7546C22.2182 12.7513 19.4827 13.8228 17.2338 15.969C14.9849 18.1151 13.8579 20.7158 13.8528 23.7711C13.8476 26.8263 14.9746 29.4278 17.2338 31.5756C19.493 33.7234 22.2285 34.794 25.4404 34.7875Z" fill="black" fill-opacity="0.5"/>
</svg>